<svg xmlns="http://www.w3.org/2000/svg" xmlns:xlink="http://www.w3.org/1999/xlink" width="1920" zoomAndPan="magnify" viewBox="0 0 1440 809.999993" height="1080" preserveAspectRatio="xMidYMid meet" version="1.0"><defs><clipPath id="136cd44fca"><path d="M 946 401 L 1253 401 L 1253 546.988281 L 946 546.988281 Z M 946 401 " clip-rule="nonzero"/></clipPath><clipPath id="d6c4195279"><path d="M 802 401 L 1109 401 L 1109 546.988281 L 802 546.988281 Z M 802 401 " clip-rule="nonzero"/></clipPath><clipPath id="6e349e7304"><path d="M 707 269.488281 L 796 269.488281 L 796 446 L 707 446 Z M 707 269.488281 " clip-rule="nonzero"/></clipPath><clipPath id="b1a5856668"><path d="M 0 371 L 88 371 L 88 546.988281 L 0 546.988281 Z M 0 371 " clip-rule="nonzero"/></clipPath><clipPath id="e2bf2ef3b8"><path d="M 1155 404 L 1440 404 L 1440 546.988281 L 1155 546.988281 Z M 1155 404 " clip-rule="nonzero"/></clipPath></defs><path fill="#dea93f" d="M 199.921875 522.457031 L 555.792969 522.457031 L 670.027344 408.222656 L 314.152344 408.222656 Z M 199.921875 522.457031 " fill-opacity="1" fill-rule="nonzero"/><path fill="#62acc5" d="M 964.101562 401.257812 L 819.371094 545.988281 L 657.824219 545.988281 L 802.554688 401.257812 Z M 964.101562 401.257812 " fill-opacity="1" fill-rule="nonzero"/><g clip-path="url(#136cd44fca)"><path fill="#13366c" d="M 1252.761719 401.527344 L 1171.996094 482.300781 L 1108.03125 546.257812 L 946.484375 546.257812 L 1091.21875 401.527344 Z M 1252.761719 401.527344 " fill-opacity="1" fill-rule="nonzero"/></g><g clip-path="url(#d6c4195279)"><path fill="#dea93f" d="M 964.105469 401.527344 L 1108.835938 546.257812 L 947.285156 546.257812 L 802.554688 401.527344 Z M 964.105469 401.527344 " fill-opacity="1" fill-rule="nonzero"/></g><path fill="#13366c" d="M 1369.328125 439.777344 L 1439.996094 510.4375 L 1439.996094 369.109375 Z M 1369.328125 439.777344 " fill-opacity="1" fill-rule="nonzero"/><g clip-path="url(#6e349e7304)"><path fill="#dea93f" d="M 795.445312 357.46875 L 707.835938 269.863281 L 707.835938 445.078125 Z M 795.445312 357.46875 " fill-opacity="1" fill-rule="nonzero"/></g><path fill="#13366c" d="M 43.808594 371.039062 L 87.609375 327.238281 L 87.609375 414.847656 Z M 43.808594 371.039062 " fill-opacity="1" fill-rule="nonzero"/><path fill="#13366c" d="M 294.53125 384.890625 L 229.617188 449.808594 L 229.617188 319.976562 Z M 294.53125 384.890625 " fill-opacity="1" fill-rule="nonzero"/><path fill="#62acc5" d="M 417.375 329.449219 L 482.292969 394.367188 L 352.457031 394.367188 Z M 417.375 329.449219 " fill-opacity="1" fill-rule="nonzero"/><path fill="#62acc5" d="M 1026.792969 404.269531 L 1070.597656 360.460938 L 982.988281 360.460938 Z M 1026.792969 404.269531 " fill-opacity="1" fill-rule="nonzero"/><g clip-path="url(#b1a5856668)"><path fill="#62acc5" d="M 87.609375 458.648438 L 0 371.039062 L 0 546.257812 Z M 87.609375 458.648438 " fill-opacity="1" fill-rule="nonzero"/></g><path fill="#13366c" d="M 636.34375 357.46875 L 558.976562 434.839844 L 528.472656 465.339844 L 520.039062 465.339844 L 550.539062 434.839844 L 627.90625 357.46875 Z M 636.34375 357.46875 " fill-opacity="1" fill-rule="nonzero"/><path fill="#13366c" d="M 687.382812 357.46875 L 579.515625 465.339844 L 571.074219 465.339844 L 678.941406 357.46875 Z M 687.382812 357.46875 " fill-opacity="1" fill-rule="nonzero"/><path fill="#13366c" d="M 661.863281 357.46875 L 553.996094 465.339844 L 545.558594 465.339844 L 653.425781 357.46875 Z M 661.863281 357.46875 " fill-opacity="1" fill-rule="nonzero"/><path fill="#13366c" d="M 610.828125 357.46875 L 502.960938 465.339844 L 494.519531 465.339844 L 602.386719 357.46875 Z M 610.828125 357.46875 " fill-opacity="1" fill-rule="nonzero"/><path fill="#13366c" d="M 712.898438 357.46875 L 605.027344 465.339844 L 596.59375 465.339844 L 704.460938 357.46875 Z M 712.898438 357.46875 " fill-opacity="1" fill-rule="nonzero"/><path fill="#13366c" d="M 763.9375 357.46875 L 656.070312 465.339844 L 647.628906 465.339844 L 755.496094 357.46875 Z M 763.9375 357.46875 " fill-opacity="1" fill-rule="nonzero"/><path fill="#13366c" d="M 738.417969 357.46875 L 661.050781 434.839844 L 630.550781 465.339844 L 622.113281 465.339844 L 652.613281 434.839844 L 729.980469 357.46875 Z M 738.417969 357.46875 " fill-opacity="1" fill-rule="nonzero"/><g clip-path="url(#e2bf2ef3b8)"><path fill="#62acc5" d="M 1297.183594 404.269531 L 1155.140625 546.308594 L 1439.226562 546.308594 Z M 1297.183594 404.269531 " fill-opacity="1" fill-rule="nonzero"/></g><path fill="#dea93f" d="M 206.652344 440.90625 C 206.652344 439.480469 206.621094 438.058594 206.550781 436.632812 C 206.480469 435.210938 206.375 433.789062 206.234375 432.371094 C 206.09375 430.953125 205.921875 429.539062 205.710938 428.128906 C 205.503906 426.722656 205.257812 425.316406 204.980469 423.917969 C 204.703125 422.523438 204.390625 421.132812 204.042969 419.75 C 203.699219 418.367188 203.320312 416.996094 202.90625 415.632812 C 202.492188 414.265625 202.042969 412.914062 201.5625 411.574219 C 201.085938 410.230469 200.570312 408.902344 200.027344 407.585938 C 199.480469 406.269531 198.902344 404.964844 198.292969 403.679688 C 197.683594 402.390625 197.042969 401.117188 196.371094 399.859375 C 195.699219 398.605469 195 397.363281 194.265625 396.140625 C 193.535156 394.921875 192.773438 393.714844 191.980469 392.53125 C 191.1875 391.347656 190.367188 390.183594 189.519531 389.039062 C 188.671875 387.894531 187.792969 386.769531 186.890625 385.667969 C 185.984375 384.566406 185.054688 383.488281 184.097656 382.433594 C 183.140625 381.375 182.160156 380.34375 181.152344 379.335938 C 180.144531 378.328125 179.113281 377.347656 178.054688 376.390625 C 177 375.433594 175.921875 374.503906 174.820312 373.597656 C 173.71875 372.695312 172.59375 371.816406 171.449219 370.96875 C 170.304688 370.121094 169.140625 369.300781 167.957031 368.507812 C 166.773438 367.714844 165.566406 366.953125 164.347656 366.222656 C 163.125 365.488281 161.882812 364.789062 160.628906 364.117188 C 159.371094 363.445312 158.097656 362.804688 156.808594 362.195312 C 155.523438 361.585938 154.21875 361.007812 152.902344 360.460938 C 151.585938 359.917969 150.257812 359.402344 148.914062 358.925781 C 147.574219 358.445312 146.222656 357.996094 144.859375 357.582031 C 143.492188 357.167969 142.121094 356.789062 140.738281 356.445312 C 139.355469 356.097656 137.964844 355.785156 136.570312 355.507812 C 135.171875 355.230469 133.765625 354.984375 132.359375 354.777344 C 130.949219 354.566406 129.535156 354.394531 128.117188 354.253906 C 126.699219 354.113281 125.277344 354.007812 123.855469 353.9375 C 122.429688 353.871094 121.007812 353.835938 119.582031 353.835938 L 119.582031 393.234375 C 121.132812 393.25 122.679688 393.34375 124.222656 393.507812 C 125.765625 393.675781 127.292969 393.917969 128.8125 394.234375 C 130.332031 394.550781 131.832031 394.941406 133.3125 395.402344 C 134.792969 395.863281 136.246094 396.398438 137.675781 397.003906 C 139.105469 397.609375 140.5 398.28125 141.863281 399.019531 C 143.226562 399.761719 144.550781 400.566406 145.835938 401.4375 C 147.117188 402.308594 148.359375 403.238281 149.550781 404.230469 C 150.746094 405.21875 151.886719 406.265625 152.976562 407.371094 C 154.070312 408.472656 155.105469 409.625 156.082031 410.828125 C 157.0625 412.03125 157.980469 413.28125 158.835938 414.574219 C 159.695312 415.867188 160.484375 417.199219 161.210938 418.570312 C 161.9375 419.941406 162.597656 421.34375 163.1875 422.777344 C 163.777344 424.210938 164.296875 425.671875 164.742188 427.15625 C 165.191406 428.644531 165.566406 430.144531 165.867188 431.667969 C 166.167969 433.191406 166.390625 434.722656 166.542969 436.265625 C 166.695312 437.808594 166.769531 439.359375 166.769531 440.910156 C 166.769531 442.460938 166.695312 444.007812 166.542969 445.550781 C 166.390625 447.097656 166.167969 448.628906 165.867188 450.152344 C 165.566406 451.671875 165.191406 453.175781 164.742188 454.660156 C 164.296875 456.148438 163.777344 457.605469 163.1875 459.042969 C 162.597656 460.476562 161.9375 461.878906 161.210938 463.25 C 160.484375 464.621094 159.695312 465.953125 158.835938 467.246094 C 157.980469 468.539062 157.0625 469.785156 156.082031 470.988281 C 155.105469 472.191406 154.070312 473.347656 152.976562 474.449219 C 151.886719 475.550781 150.746094 476.597656 149.550781 477.589844 C 148.359375 478.582031 147.117188 479.511719 145.835938 480.378906 C 144.550781 481.25 143.226562 482.054688 141.863281 482.796875 C 140.5 483.539062 139.105469 484.210938 137.675781 484.816406 C 136.246094 485.421875 134.792969 485.953125 133.3125 486.417969 C 131.832031 486.878906 130.332031 487.269531 128.8125 487.585938 C 127.292969 487.902344 125.765625 488.140625 124.222656 488.308594 C 122.679688 488.476562 121.132812 488.566406 119.582031 488.582031 L 119.582031 527.984375 C 121.007812 527.984375 122.429688 527.949219 123.855469 527.878906 C 125.277344 527.808594 126.699219 527.703125 128.117188 527.566406 C 129.535156 527.425781 130.949219 527.25 132.359375 527.042969 C 133.769531 526.832031 135.171875 526.589844 136.570312 526.3125 C 137.96875 526.035156 139.355469 525.722656 140.738281 525.375 C 142.121094 525.027344 143.496094 524.648438 144.859375 524.234375 C 146.222656 523.820312 147.574219 523.375 148.917969 522.894531 C 150.257812 522.414062 151.585938 521.902344 152.902344 521.355469 C 154.21875 520.8125 155.523438 520.234375 156.8125 519.625 C 158.097656 519.015625 159.371094 518.375 160.628906 517.703125 C 161.886719 517.03125 163.125 516.328125 164.347656 515.59375 C 165.570312 514.863281 166.773438 514.101562 167.957031 513.308594 C 169.144531 512.515625 170.308594 511.695312 171.453125 510.847656 C 172.597656 510 173.71875 509.121094 174.820312 508.21875 C 175.921875 507.316406 177 506.382812 178.058594 505.425781 C 179.113281 504.46875 180.144531 503.488281 181.152344 502.480469 C 182.160156 501.472656 183.144531 500.441406 184.101562 499.382812 C 185.058594 498.328125 185.988281 497.25 186.890625 496.148438 C 187.796875 495.046875 188.671875 493.921875 189.519531 492.777344 C 190.371094 491.632812 191.191406 490.46875 191.980469 489.285156 C 192.773438 488.097656 193.535156 486.894531 194.269531 485.671875 C 195 484.449219 195.703125 483.210938 196.375 481.953125 C 197.046875 480.699219 197.6875 479.425781 198.296875 478.136719 C 198.90625 476.847656 199.480469 475.546875 200.027344 474.230469 C 200.574219 472.914062 201.085938 471.582031 201.566406 470.242188 C 202.046875 468.898438 202.492188 467.546875 202.90625 466.183594 C 203.320312 464.820312 203.699219 463.445312 204.046875 462.066406 C 204.390625 460.683594 204.703125 459.292969 204.980469 457.894531 C 205.261719 456.496094 205.503906 455.09375 205.710938 453.683594 C 205.921875 452.273438 206.097656 450.859375 206.234375 449.441406 C 206.375 448.023438 206.480469 446.601562 206.550781 445.179688 C 206.621094 443.757812 206.65625 442.332031 206.652344 440.90625 Z M 206.652344 440.90625 " fill-opacity="1" fill-rule="nonzero"/><path fill="#62acc5" d="M 141.769531 440.90625 C 141.769531 441.632812 141.730469 442.359375 141.660156 443.082031 C 141.589844 443.808594 141.484375 444.527344 141.339844 445.238281 C 141.199219 445.953125 141.023438 446.65625 140.8125 447.351562 C 140.601562 448.050781 140.355469 448.734375 140.078125 449.40625 C 139.800781 450.078125 139.488281 450.734375 139.144531 451.375 C 138.804688 452.015625 138.429688 452.640625 138.027344 453.242188 C 137.621094 453.847656 137.1875 454.433594 136.726562 454.992188 C 136.265625 455.554688 135.777344 456.09375 135.265625 456.609375 C 134.75 457.121094 134.210938 457.609375 133.648438 458.070312 C 133.085938 458.535156 132.503906 458.964844 131.898438 459.371094 C 131.292969 459.773438 130.671875 460.148438 130.03125 460.492188 C 129.386719 460.832031 128.730469 461.144531 128.058594 461.421875 C 127.386719 461.699219 126.703125 461.945312 126.007812 462.15625 C 125.3125 462.367188 124.609375 462.542969 123.894531 462.6875 C 123.179688 462.828125 122.460938 462.933594 121.738281 463.003906 C 121.015625 463.078125 120.289062 463.113281 119.5625 463.113281 C 118.835938 463.113281 118.109375 463.078125 117.386719 463.003906 C 116.660156 462.933594 115.941406 462.828125 115.230469 462.6875 C 114.515625 462.542969 113.8125 462.367188 113.117188 462.15625 C 112.421875 461.945312 111.738281 461.699219 111.0625 461.421875 C 110.390625 461.144531 109.734375 460.832031 109.09375 460.492188 C 108.453125 460.148438 107.832031 459.773438 107.226562 459.371094 C 106.621094 458.964844 106.039062 458.535156 105.476562 458.070312 C 104.914062 457.609375 104.375 457.121094 103.859375 456.609375 C 103.347656 456.09375 102.859375 455.554688 102.398438 454.992188 C 101.9375 454.433594 101.503906 453.847656 101.097656 453.242188 C 100.695312 452.640625 100.320312 452.015625 99.980469 451.375 C 99.636719 450.734375 99.324219 450.078125 99.046875 449.40625 C 98.769531 448.734375 98.523438 448.050781 98.3125 447.351562 C 98.101562 446.65625 97.925781 445.953125 97.785156 445.238281 C 97.640625 444.527344 97.535156 443.808594 97.464844 443.082031 C 97.390625 442.359375 97.355469 441.632812 97.355469 440.90625 C 97.355469 440.179688 97.390625 439.453125 97.464844 438.730469 C 97.535156 438.007812 97.640625 437.289062 97.785156 436.574219 C 97.925781 435.863281 98.101562 435.15625 98.3125 434.460938 C 98.523438 433.765625 98.769531 433.082031 99.046875 432.410156 C 99.324219 431.738281 99.636719 431.082031 99.980469 430.4375 C 100.320312 429.796875 100.695312 429.175781 101.097656 428.570312 C 101.503906 427.964844 101.9375 427.382812 102.398438 426.820312 C 102.859375 426.257812 103.347656 425.71875 103.859375 425.203125 C 104.375 424.691406 104.914062 424.203125 105.476562 423.742188 C 106.039062 423.28125 106.621094 422.847656 107.226562 422.445312 C 107.832031 422.039062 108.453125 421.667969 109.09375 421.324219 C 109.734375 420.980469 110.390625 420.667969 111.0625 420.390625 C 111.738281 420.113281 112.421875 419.867188 113.117188 419.65625 C 113.8125 419.445312 114.515625 419.269531 115.230469 419.128906 C 115.941406 418.984375 116.660156 418.878906 117.386719 418.808594 C 118.109375 418.738281 118.835938 418.703125 119.5625 418.703125 C 120.289062 418.703125 121.015625 418.738281 121.738281 418.808594 C 122.460938 418.878906 123.179688 418.984375 123.894531 419.128906 C 124.609375 419.269531 125.3125 419.445312 126.007812 419.65625 C 126.703125 419.867188 127.386719 420.113281 128.058594 420.390625 C 128.730469 420.667969 129.386719 420.980469 130.03125 421.324219 C 130.671875 421.667969 131.292969 422.039062 131.898438 422.445312 C 132.503906 422.847656 133.085938 423.28125 133.648438 423.742188 C 134.210938 424.203125 134.75 424.691406 135.265625 425.203125 C 135.777344 425.71875 136.265625 426.257812 136.726562 426.820312 C 137.1875 427.382812 137.621094 427.964844 138.027344 428.570312 C 138.429688 429.175781 138.804688 429.796875 139.144531 430.4375 C 139.488281 431.082031 139.800781 431.738281 140.078125 432.410156 C 140.355469 433.082031 140.601562 433.765625 140.8125 434.460938 C 141.023438 435.15625 141.199219 435.863281 141.339844 436.574219 C 141.484375 437.289062 141.589844 438.007812 141.660156 438.730469 C 141.730469 439.453125 141.769531 440.179688 141.769531 440.90625 Z M 141.769531 440.90625 " fill-opacity="1" fill-rule="nonzero"/><path fill="#dea93f" d="M 1295.015625 347.324219 L 1217.648438 424.691406 L 1187.144531 455.191406 L 1178.710938 455.191406 L 1286.578125 347.324219 Z M 1295.015625 347.324219 " fill-opacity="1" fill-rule="nonzero"/><path fill="#dea93f" d="M 1346.054688 347.324219 L 1238.183594 455.191406 L 1229.742188 455.191406 L 1337.613281 347.324219 Z M 1346.054688 347.324219 " fill-opacity="1" fill-rule="nonzero"/><path fill="#dea93f" d="M 1320.535156 347.324219 L 1212.664062 455.191406 L 1204.230469 455.191406 L 1312.097656 347.324219 Z M 1320.535156 347.324219 " fill-opacity="1" fill-rule="nonzero"/><path fill="#dea93f" d="M 1269.5 347.324219 L 1161.632812 455.191406 L 1153.1875 455.191406 L 1261.058594 347.324219 Z M 1269.5 347.324219 " fill-opacity="1" fill-rule="nonzero"/><path fill="#dea93f" d="M 1371.570312 347.324219 L 1263.699219 455.191406 L 1255.265625 455.191406 L 1363.132812 347.324219 Z M 1371.570312 347.324219 " fill-opacity="1" fill-rule="nonzero"/><path fill="#dea93f" d="M 1422.609375 347.324219 L 1314.742188 455.191406 L 1306.296875 455.191406 L 1414.167969 347.324219 Z M 1422.609375 347.324219 " fill-opacity="1" fill-rule="nonzero"/><path fill="#dea93f" d="M 1397.089844 347.324219 L 1319.722656 424.691406 L 1289.21875 455.191406 L 1280.785156 455.191406 L 1388.652344 347.324219 Z M 1397.089844 347.324219 " fill-opacity="1" fill-rule="nonzero"/></svg>