<svg xmlns="http://www.w3.org/2000/svg" xmlns:xlink="http://www.w3.org/1999/xlink" width="1920" zoomAndPan="magnify" viewBox="0 0 1440 809.999993" height="1080" preserveAspectRatio="xMidYMid meet" version="1.0"><defs><clipPath id="5ad512c809"><path d="M 619 411 L 751 411 L 751 543.679688 L 619 543.679688 Z M 619 411 " clip-rule="nonzero"/></clipPath><clipPath id="95346e4913"><path d="M 482 409 L 618 409 L 618 543.679688 L 482 543.679688 Z M 482 409 " clip-rule="nonzero"/></clipPath><clipPath id="1bef6acf23"><path d="M 1170 408 L 1306 408 L 1306 543.679688 L 1170 543.679688 Z M 1170 408 " clip-rule="nonzero"/></clipPath><clipPath id="6cd2f87e94"><path d="M 1030 409 L 1166 409 L 1166 543.679688 L 1030 543.679688 Z M 1030 409 " clip-rule="nonzero"/></clipPath><clipPath id="c0674e567f"><path d="M 1304 408 L 1440 408 L 1440 543.679688 L 1304 543.679688 Z M 1304 408 " clip-rule="nonzero"/></clipPath><clipPath id="de8fdd78d4"><path d="M 760 268.429688 L 896 268.429688 L 896 404 L 760 404 Z M 760 268.429688 " clip-rule="nonzero"/></clipPath><clipPath id="1e26e0df1f"><path d="M 0 434 L 109 434 L 109 543.679688 L 0 543.679688 Z M 0 434 " clip-rule="nonzero"/></clipPath></defs><path fill="#235383" d="M 482.941406 408.136719 L 482.941406 273.847656 L 616.457031 273.847656 C 616.457031 274.105469 616.457031 274.363281 616.457031 274.621094 C 616.457031 348.394531 556.664062 408.136719 482.941406 408.136719 Z M 482.941406 408.136719 " fill-opacity="1" fill-rule="nonzero"/><path fill="#13366c" d="M 0.105469 407.773438 L 0.105469 273.484375 L 133.621094 273.484375 C 133.621094 273.742188 133.621094 274 133.621094 274.257812 C 133.671875 347.980469 73.878906 407.773438 0.105469 407.773438 Z M 0.105469 407.773438 " fill-opacity="1" fill-rule="nonzero"/><path fill="#235383" d="M 1307.460938 273.070312 L 1439.328125 273.070312 L 1439.328125 404.164062 C 1439.070312 404.164062 1438.8125 404.164062 1438.554688 404.164062 C 1366.171875 404.214844 1307.460938 345.503906 1307.460938 273.070312 Z M 1307.460938 273.070312 " fill-opacity="1" fill-rule="nonzero"/><g clip-path="url(#5ad512c809)"><path fill="#dea93f" d="M 750.953125 411.230469 L 750.953125 543.097656 L 619.863281 543.097656 C 619.863281 542.839844 619.863281 542.582031 619.863281 542.324219 C 619.8125 469.941406 678.519531 411.230469 750.953125 411.230469 Z M 750.953125 411.230469 " fill-opacity="1" fill-rule="nonzero"/></g><path fill="#13366c" d="M 617.542969 273.847656 L 618.316406 273.847656 C 691.574219 273.847656 750.953125 333.226562 750.953125 406.484375 C 750.695312 406.484375 750.4375 406.484375 750.179688 406.484375 C 676.921875 406.484375 617.542969 347.105469 617.542969 273.847656 Z M 617.542969 273.847656 " fill-opacity="1" fill-rule="nonzero"/><path fill="#dea93f" d="M 116.90625 388.894531 C 116.90625 324.921875 168.753906 273.125 232.675781 273.125 L 232.675781 273.792969 C 232.675781 337.765625 180.828125 389.5625 116.90625 389.5625 C 116.90625 389.304688 116.90625 389.097656 116.90625 388.894531 Z M 116.90625 388.894531 " fill-opacity="1" fill-rule="nonzero"/><g clip-path="url(#95346e4913)"><path fill="#62acc5" d="M 482.476562 409.527344 L 483.25 409.527344 C 557.4375 409.527344 617.539062 469.683594 617.539062 543.820312 C 617.28125 543.820312 617.023438 543.820312 616.765625 543.820312 C 542.578125 543.820312 482.476562 483.664062 482.476562 409.527344 Z M 482.476562 409.527344 " fill-opacity="1" fill-rule="nonzero"/></g><path fill="#13366c" d="M 1029.90625 406.949219 C 1029.90625 332.761719 1090.058594 272.660156 1164.195312 272.660156 L 1164.195312 273.433594 C 1164.195312 347.621094 1104.039062 407.722656 1029.90625 407.722656 C 1029.90625 407.464844 1029.90625 407.207031 1029.90625 406.949219 Z M 1029.90625 406.949219 " fill-opacity="1" fill-rule="nonzero"/><path fill="#62acc5" d="M 1028.203125 407.414062 L 1027.429688 407.414062 C 953.242188 407.414062 893.136719 347.257812 893.136719 273.125 C 893.394531 273.125 893.652344 273.125 893.910156 273.125 C 968.046875 273.125 1028.203125 333.226562 1028.203125 407.414062 Z M 1028.203125 407.414062 " fill-opacity="1" fill-rule="nonzero"/><path fill="#dea93f" d="M 1305.398438 274.621094 C 1305.398438 348.808594 1245.242188 408.910156 1171.109375 408.910156 L 1171.109375 408.136719 C 1171.109375 333.949219 1231.261719 273.847656 1305.398438 273.847656 C 1305.398438 274.105469 1305.398438 274.363281 1305.398438 274.621094 Z M 1305.398438 274.621094 " fill-opacity="1" fill-rule="nonzero"/><g clip-path="url(#1bef6acf23)"><path fill="#62acc5" d="M 1170.902344 408.910156 L 1171.675781 408.910156 C 1245.863281 408.910156 1305.964844 469.066406 1305.964844 543.199219 C 1305.707031 543.199219 1305.449219 543.199219 1305.191406 543.199219 C 1231.054688 543.25 1170.902344 483.097656 1170.902344 408.910156 Z M 1170.902344 408.910156 " fill-opacity="1" fill-rule="nonzero"/></g><path fill="#235383" d="M 893.757812 541.910156 C 893.757812 467.722656 953.910156 407.621094 1028.046875 407.621094 L 1028.046875 408.394531 C 1028.046875 482.582031 967.894531 542.683594 893.757812 542.683594 C 893.757812 542.425781 893.757812 542.167969 893.757812 541.910156 Z M 893.757812 541.910156 " fill-opacity="1" fill-rule="nonzero"/><path fill="#dea93f" d="M 338.640625 273.070312 L 338.640625 408.136719 L 204.351562 408.136719 C 204.351562 407.878906 204.351562 407.621094 204.351562 407.363281 C 204.351562 333.226562 264.453125 273.070312 338.640625 273.070312 Z M 338.640625 273.070312 " fill-opacity="1" fill-rule="nonzero"/><path fill="#13366c" d="M 473.757812 408.136719 L 338.640625 408.136719 L 338.640625 273.847656 C 338.898438 273.847656 339.15625 273.847656 339.417969 273.847656 C 413.601562 273.847656 473.757812 334 473.757812 408.136719 Z M 473.757812 408.136719 " fill-opacity="1" fill-rule="nonzero"/><path fill="#13366c" d="M 885.246094 407.570312 L 885.246094 542.632812 L 750.953125 542.632812 C 750.953125 542.375 750.953125 542.117188 750.953125 541.859375 C 750.953125 467.722656 811.058594 407.570312 885.246094 407.570312 Z M 885.246094 407.570312 " fill-opacity="1" fill-rule="nonzero"/><g clip-path="url(#6cd2f87e94)"><path fill="#13366c" d="M 1165.070312 543.820312 L 1030.007812 543.820312 L 1030.007812 409.527344 C 1030.265625 409.527344 1030.523438 409.527344 1030.78125 409.527344 C 1104.917969 409.527344 1165.070312 469.632812 1165.070312 543.820312 Z M 1165.070312 543.820312 " fill-opacity="1" fill-rule="nonzero"/></g><path fill="#62acc5" d="M 203.578125 408.136719 L 338.640625 408.136719 L 338.640625 542.425781 C 338.382812 542.425781 338.125 542.425781 337.867188 542.425781 C 263.679688 542.476562 203.578125 482.324219 203.578125 408.136719 Z M 203.578125 408.136719 " fill-opacity="1" fill-rule="nonzero"/><path fill="#235383" d="M 473.757812 409.734375 L 473.757812 542.53125 L 340.964844 542.53125 C 385.230469 498.265625 429.492188 454 473.757812 409.734375 Z M 473.757812 409.734375 " fill-opacity="1" fill-rule="nonzero"/><g clip-path="url(#c0674e567f)"><path fill="#62acc5" d="M 1439.894531 475.566406 C 1439.894531 476.671875 1439.867188 477.773438 1439.8125 478.878906 C 1439.757812 479.984375 1439.679688 481.085938 1439.570312 482.183594 C 1439.460938 483.285156 1439.328125 484.382812 1439.164062 485.472656 C 1439.003906 486.566406 1438.8125 487.65625 1438.597656 488.738281 C 1438.382812 489.824219 1438.140625 490.902344 1437.871094 491.972656 C 1437.601562 493.046875 1437.308594 494.109375 1436.988281 495.167969 C 1436.667969 496.226562 1436.320312 497.273438 1435.949219 498.316406 C 1435.574219 499.355469 1435.175781 500.386719 1434.753906 501.410156 C 1434.332031 502.429688 1433.882812 503.4375 1433.410156 504.4375 C 1432.9375 505.4375 1432.441406 506.425781 1431.921875 507.398438 C 1431.398438 508.375 1430.855469 509.335938 1430.289062 510.285156 C 1429.71875 511.230469 1429.128906 512.164062 1428.515625 513.082031 C 1427.898438 514.003906 1427.265625 514.90625 1426.605469 515.792969 C 1425.945312 516.679688 1425.265625 517.550781 1424.566406 518.40625 C 1423.863281 519.261719 1423.144531 520.097656 1422.402344 520.917969 C 1421.660156 521.734375 1420.898438 522.535156 1420.117188 523.316406 C 1419.332031 524.097656 1418.535156 524.859375 1417.714844 525.601562 C 1416.894531 526.34375 1416.058594 527.066406 1415.203125 527.769531 C 1414.351562 528.46875 1413.480469 529.148438 1412.589844 529.808594 C 1411.703125 530.464844 1410.800781 531.101562 1409.882812 531.714844 C 1408.964844 532.328125 1408.03125 532.921875 1407.082031 533.488281 C 1406.132812 534.058594 1405.171875 534.601562 1404.199219 535.121094 C 1403.222656 535.644531 1402.234375 536.140625 1401.238281 536.613281 C 1400.238281 537.085938 1399.226562 537.535156 1398.207031 537.957031 C 1397.183594 538.378906 1396.15625 538.777344 1395.113281 539.148438 C 1394.074219 539.523438 1393.023438 539.867188 1391.964844 540.1875 C 1390.910156 540.511719 1389.84375 540.804688 1388.773438 541.074219 C 1387.699219 541.339844 1386.621094 541.582031 1385.539062 541.800781 C 1384.453125 542.015625 1383.367188 542.203125 1382.273438 542.367188 C 1381.179688 542.527344 1380.082031 542.664062 1378.984375 542.773438 C 1377.882812 542.878906 1376.78125 542.960938 1375.675781 543.015625 C 1374.574219 543.070312 1373.46875 543.097656 1372.363281 543.097656 C 1371.257812 543.097656 1370.152344 543.070312 1369.050781 543.015625 C 1367.945312 542.960938 1366.84375 542.878906 1365.742188 542.773438 C 1364.644531 542.664062 1363.546875 542.527344 1362.453125 542.367188 C 1361.359375 542.203125 1360.273438 542.015625 1359.1875 541.800781 C 1358.105469 541.585938 1357.027344 541.34375 1355.953125 541.074219 C 1354.882812 540.804688 1353.816406 540.511719 1352.757812 540.1875 C 1351.703125 539.867188 1350.652344 539.523438 1349.613281 539.148438 C 1348.570312 538.777344 1347.539062 538.378906 1346.519531 537.957031 C 1345.5 537.535156 1344.488281 537.085938 1343.488281 536.613281 C 1342.488281 536.140625 1341.503906 535.644531 1340.527344 535.121094 C 1339.554688 534.601562 1338.59375 534.058594 1337.644531 533.488281 C 1336.695312 532.921875 1335.761719 532.328125 1334.84375 531.714844 C 1333.925781 531.101562 1333.023438 530.464844 1332.132812 529.808594 C 1331.246094 529.148438 1330.375 528.46875 1329.519531 527.769531 C 1328.667969 527.066406 1327.828125 526.34375 1327.011719 525.601562 C 1326.191406 524.859375 1325.390625 524.097656 1324.609375 523.316406 C 1323.828125 522.535156 1323.066406 521.734375 1322.324219 520.917969 C 1321.582031 520.097656 1320.859375 519.261719 1320.160156 518.40625 C 1319.457031 517.550781 1318.777344 516.679688 1318.121094 515.792969 C 1317.460938 514.90625 1316.824219 514.003906 1316.210938 513.082031 C 1315.597656 512.164062 1315.007812 511.230469 1314.4375 510.285156 C 1313.871094 509.335938 1313.324219 508.375 1312.804688 507.398438 C 1312.285156 506.425781 1311.789062 505.4375 1311.316406 504.4375 C 1310.84375 503.4375 1310.394531 502.429688 1309.972656 501.410156 C 1309.546875 500.386719 1309.152344 499.355469 1308.777344 498.316406 C 1308.40625 497.273438 1308.058594 496.226562 1307.738281 495.167969 C 1307.417969 494.109375 1307.125 493.046875 1306.855469 491.972656 C 1306.585938 490.902344 1306.34375 489.824219 1306.128906 488.738281 C 1305.914062 487.65625 1305.722656 486.566406 1305.5625 485.472656 C 1305.398438 484.382812 1305.265625 483.285156 1305.15625 482.183594 C 1305.046875 481.085938 1304.964844 479.984375 1304.914062 478.878906 C 1304.859375 477.773438 1304.832031 476.671875 1304.832031 475.566406 C 1304.832031 474.460938 1304.859375 473.355469 1304.914062 472.25 C 1304.964844 471.148438 1305.046875 470.046875 1305.15625 468.945312 C 1305.265625 467.84375 1305.398438 466.75 1305.5625 465.65625 C 1305.722656 464.5625 1305.914062 463.472656 1306.128906 462.390625 C 1306.34375 461.304688 1306.585938 460.226562 1306.855469 459.15625 C 1307.125 458.082031 1307.417969 457.019531 1307.738281 455.960938 C 1308.058594 454.902344 1308.40625 453.855469 1308.777344 452.8125 C 1309.152344 451.773438 1309.546875 450.742188 1309.972656 449.722656 C 1310.394531 448.699219 1310.84375 447.691406 1311.316406 446.691406 C 1311.789062 445.691406 1312.285156 444.707031 1312.804688 443.730469 C 1313.324219 442.753906 1313.871094 441.792969 1314.4375 440.847656 C 1315.007812 439.898438 1315.597656 438.964844 1316.210938 438.046875 C 1316.824219 437.128906 1317.460938 436.222656 1318.121094 435.335938 C 1318.777344 434.449219 1319.457031 433.578125 1320.160156 432.722656 C 1320.859375 431.867188 1321.582031 431.03125 1322.324219 430.214844 C 1323.066406 429.394531 1323.828125 428.59375 1324.609375 427.8125 C 1325.390625 427.03125 1326.191406 426.269531 1327.011719 425.527344 C 1327.832031 424.785156 1328.667969 424.0625 1329.519531 423.363281 C 1330.375 422.660156 1331.246094 421.980469 1332.132812 421.324219 C 1333.023438 420.664062 1333.925781 420.027344 1334.84375 419.414062 C 1335.761719 418.800781 1336.695312 418.207031 1337.644531 417.640625 C 1338.59375 417.074219 1339.554688 416.527344 1340.527344 416.007812 C 1341.503906 415.484375 1342.488281 414.988281 1343.488281 414.515625 C 1344.488281 414.042969 1345.5 413.597656 1346.519531 413.171875 C 1347.539062 412.75 1348.570312 412.351562 1349.613281 411.980469 C 1350.652344 411.609375 1351.703125 411.261719 1352.757812 410.941406 C 1353.816406 410.621094 1354.882812 410.324219 1355.953125 410.058594 C 1357.027344 409.789062 1358.105469 409.546875 1359.1875 409.332031 C 1360.273438 409.113281 1361.359375 408.925781 1362.453125 408.765625 C 1363.546875 408.601562 1364.644531 408.464844 1365.742188 408.359375 C 1366.84375 408.25 1367.945312 408.167969 1369.050781 408.113281 C 1370.152344 408.058594 1371.257812 408.03125 1372.363281 408.03125 C 1373.46875 408.03125 1374.574219 408.058594 1375.675781 408.113281 C 1376.78125 408.167969 1377.882812 408.25 1378.984375 408.359375 C 1380.082031 408.464844 1381.179688 408.601562 1382.273438 408.765625 C 1383.367188 408.925781 1384.453125 409.113281 1385.539062 409.332031 C 1386.621094 409.546875 1387.699219 409.789062 1388.773438 410.058594 C 1389.84375 410.324219 1390.910156 410.621094 1391.964844 410.941406 C 1393.023438 411.261719 1394.074219 411.609375 1395.113281 411.980469 C 1396.15625 412.351562 1397.183594 412.75 1398.207031 413.171875 C 1399.226562 413.597656 1400.238281 414.042969 1401.238281 414.515625 C 1402.234375 414.988281 1403.222656 415.484375 1404.199219 416.007812 C 1405.171875 416.527344 1406.132812 417.074219 1407.082031 417.640625 C 1408.03125 418.207031 1408.964844 418.800781 1409.882812 419.414062 C 1410.800781 420.027344 1411.703125 420.664062 1412.589844 421.324219 C 1413.480469 421.980469 1414.351562 422.660156 1415.203125 423.363281 C 1416.058594 424.0625 1416.894531 424.785156 1417.714844 425.527344 C 1418.535156 426.269531 1419.332031 427.03125 1420.117188 427.8125 C 1420.898438 428.59375 1421.660156 429.394531 1422.402344 430.214844 C 1423.144531 431.03125 1423.863281 431.867188 1424.566406 432.722656 C 1425.265625 433.578125 1425.945312 434.449219 1426.605469 435.335938 C 1427.265625 436.222656 1427.898438 437.128906 1428.515625 438.046875 C 1429.128906 438.964844 1429.71875 439.898438 1430.289062 440.847656 C 1430.855469 441.792969 1431.398438 442.753906 1431.921875 443.730469 C 1432.441406 444.707031 1432.9375 445.691406 1433.410156 446.691406 C 1433.882812 447.691406 1434.332031 448.699219 1434.753906 449.722656 C 1435.175781 450.742188 1435.574219 451.773438 1435.949219 452.8125 C 1436.320312 453.855469 1436.667969 454.902344 1436.988281 455.960938 C 1437.308594 457.019531 1437.601562 458.085938 1437.871094 459.15625 C 1438.140625 460.226562 1438.382812 461.304688 1438.597656 462.390625 C 1438.8125 463.472656 1439.003906 464.5625 1439.164062 465.65625 C 1439.328125 466.75 1439.460938 467.847656 1439.570312 468.945312 C 1439.679688 470.046875 1439.757812 471.148438 1439.8125 472.25 C 1439.867188 473.355469 1439.894531 474.460938 1439.894531 475.566406 Z M 1439.894531 475.566406 " fill-opacity="1" fill-rule="nonzero"/></g><g clip-path="url(#de8fdd78d4)"><path fill="#62acc5" d="M 895.511719 335.960938 C 895.511719 337.066406 895.484375 338.171875 895.429688 339.273438 C 895.375 340.378906 895.292969 341.480469 895.1875 342.582031 C 895.078125 343.679688 894.941406 344.777344 894.78125 345.871094 C 894.617188 346.964844 894.429688 348.050781 894.214844 349.136719 C 893.996094 350.21875 893.753906 351.296875 893.488281 352.371094 C 893.21875 353.441406 892.925781 354.507812 892.601562 355.5625 C 892.28125 356.621094 891.9375 357.671875 891.5625 358.710938 C 891.191406 359.753906 890.792969 360.78125 890.371094 361.804688 C 889.949219 362.824219 889.5 363.835938 889.027344 364.835938 C 888.554688 365.832031 888.058594 366.820312 887.535156 367.796875 C 887.015625 368.769531 886.472656 369.730469 885.902344 370.679688 C 885.335938 371.628906 884.742188 372.558594 884.128906 373.480469 C 883.515625 374.398438 882.878906 375.300781 882.222656 376.191406 C 881.5625 377.078125 880.882812 377.949219 880.183594 378.804688 C 879.480469 379.65625 878.757812 380.492188 878.015625 381.3125 C 877.273438 382.132812 876.511719 382.933594 875.730469 383.714844 C 874.949219 384.496094 874.148438 385.257812 873.332031 386 C 872.511719 386.742188 871.675781 387.460938 870.820312 388.164062 C 869.964844 388.863281 869.09375 389.542969 868.207031 390.203125 C 867.320312 390.863281 866.417969 391.496094 865.496094 392.113281 C 864.578125 392.726562 863.644531 393.316406 862.699219 393.886719 C 861.75 394.453125 860.789062 394.996094 859.8125 395.519531 C 858.839844 396.039062 857.851562 396.535156 856.851562 397.007812 C 855.855469 397.480469 854.84375 397.929688 853.824219 398.351562 C 852.800781 398.773438 851.769531 399.171875 850.730469 399.546875 C 849.6875 399.917969 848.640625 400.265625 847.582031 400.585938 C 846.523438 400.90625 845.460938 401.199219 844.386719 401.46875 C 843.316406 401.738281 842.238281 401.980469 841.152344 402.195312 C 840.070312 402.410156 838.980469 402.601562 837.886719 402.761719 C 836.792969 402.925781 835.699219 403.058594 834.597656 403.167969 C 833.5 403.277344 832.398438 403.359375 831.292969 403.410156 C 830.1875 403.464844 829.085938 403.492188 827.980469 403.492188 C 826.875 403.492188 825.769531 403.464844 824.664062 403.410156 C 823.5625 403.359375 822.460938 403.277344 821.359375 403.167969 C 820.261719 403.058594 819.164062 402.925781 818.070312 402.761719 C 816.976562 402.601562 815.886719 402.410156 814.804688 402.195312 C 813.71875 401.980469 812.640625 401.738281 811.570312 401.46875 C 810.496094 401.199219 809.433594 400.90625 808.375 400.585938 C 807.316406 400.265625 806.269531 399.917969 805.226562 399.546875 C 804.1875 399.171875 803.15625 398.773438 802.136719 398.351562 C 801.113281 397.929688 800.105469 397.480469 799.105469 397.007812 C 798.105469 396.535156 797.121094 396.039062 796.144531 395.519531 C 795.171875 394.996094 794.207031 394.453125 793.261719 393.886719 C 792.3125 393.316406 791.378906 392.726562 790.460938 392.113281 C 789.542969 391.496094 788.636719 390.863281 787.75 390.203125 C 786.863281 389.542969 785.992188 388.863281 785.136719 388.164062 C 784.28125 387.460938 783.445312 386.742188 782.628906 386 C 781.808594 385.257812 781.007812 384.496094 780.226562 383.714844 C 779.445312 382.933594 778.683594 382.132812 777.941406 381.3125 C 777.199219 380.492188 776.476562 379.65625 775.777344 378.804688 C 775.074219 377.949219 774.394531 377.078125 773.738281 376.191406 C 773.078125 375.300781 772.441406 374.398438 771.828125 373.480469 C 771.214844 372.558594 770.621094 371.628906 770.054688 370.679688 C 769.488281 369.730469 768.941406 368.769531 768.421875 367.796875 C 767.898438 366.820312 767.402344 365.832031 766.929688 364.835938 C 766.457031 363.835938 766.011719 362.824219 765.585938 361.804688 C 765.164062 360.78125 764.765625 359.753906 764.394531 358.710938 C 764.023438 357.671875 763.675781 356.621094 763.355469 355.5625 C 763.035156 354.507812 762.738281 353.441406 762.472656 352.371094 C 762.203125 351.296875 761.960938 350.21875 761.746094 349.136719 C 761.527344 348.050781 761.339844 346.964844 761.179688 345.871094 C 761.015625 344.777344 760.878906 343.679688 760.773438 342.582031 C 760.664062 341.480469 760.582031 340.378906 760.527344 339.273438 C 760.472656 338.171875 760.445312 337.066406 760.445312 335.960938 C 760.445312 334.855469 760.472656 333.75 760.527344 332.648438 C 760.582031 331.542969 760.664062 330.441406 760.773438 329.339844 C 760.878906 328.242188 761.015625 327.144531 761.179688 326.050781 C 761.339844 324.957031 761.527344 323.871094 761.746094 322.785156 C 761.960938 321.703125 762.203125 320.625 762.46875 319.550781 C 762.738281 318.480469 763.035156 317.414062 763.355469 316.355469 C 763.675781 315.300781 764.023438 314.25 764.394531 313.210938 C 764.765625 312.167969 765.164062 311.136719 765.585938 310.117188 C 766.011719 309.097656 766.457031 308.085938 766.929688 307.085938 C 767.402344 306.089844 767.898438 305.101562 768.421875 304.125 C 768.941406 303.152344 769.488281 302.191406 770.054688 301.242188 C 770.621094 300.292969 771.214844 299.359375 771.828125 298.441406 C 772.441406 297.523438 773.078125 296.621094 773.738281 295.730469 C 774.394531 294.84375 775.074219 293.972656 775.777344 293.117188 C 776.476562 292.265625 777.199219 291.429688 777.941406 290.609375 C 778.683594 289.789062 779.445312 288.988281 780.226562 288.207031 C 781.007812 287.425781 781.808594 286.664062 782.628906 285.921875 C 783.445312 285.179688 784.28125 284.460938 785.136719 283.757812 C 785.992188 283.054688 786.863281 282.375 787.75 281.71875 C 788.636719 281.058594 789.542969 280.425781 790.460938 279.808594 C 791.378906 279.195312 792.3125 278.605469 793.261719 278.035156 C 794.207031 277.46875 795.171875 276.925781 796.144531 276.402344 C 797.121094 275.882812 798.105469 275.386719 799.105469 274.914062 C 800.105469 274.441406 801.113281 273.992188 802.136719 273.570312 C 803.15625 273.144531 804.1875 272.75 805.226562 272.375 C 806.269531 272.003906 807.316406 271.65625 808.375 271.335938 C 809.433594 271.015625 810.5 270.722656 811.570312 270.453125 C 812.640625 270.183594 813.71875 269.941406 814.804688 269.726562 C 815.886719 269.511719 816.976562 269.320312 818.070312 269.160156 C 819.164062 268.996094 820.261719 268.863281 821.359375 268.753906 C 822.460938 268.644531 823.5625 268.5625 824.664062 268.511719 C 825.769531 268.457031 826.875 268.429688 827.980469 268.429688 C 829.085938 268.429688 830.1875 268.457031 831.292969 268.511719 C 832.398438 268.5625 833.5 268.644531 834.597656 268.753906 C 835.699219 268.863281 836.792969 268.996094 837.886719 269.160156 C 838.980469 269.320312 840.070312 269.511719 841.152344 269.726562 C 842.238281 269.941406 843.316406 270.183594 844.386719 270.453125 C 845.460938 270.722656 846.523438 271.015625 847.582031 271.335938 C 848.640625 271.65625 849.6875 272.003906 850.730469 272.375 C 851.769531 272.75 852.800781 273.144531 853.824219 273.570312 C 854.84375 273.992188 855.855469 274.441406 856.851562 274.914062 C 857.851562 275.386719 858.839844 275.882812 859.8125 276.402344 C 860.789062 276.925781 861.75 277.46875 862.699219 278.035156 C 863.644531 278.605469 864.578125 279.195312 865.496094 279.808594 C 866.417969 280.425781 867.320312 281.058594 868.207031 281.71875 C 869.09375 282.375 869.964844 283.054688 870.820312 283.757812 C 871.675781 284.460938 872.511719 285.179688 873.332031 285.921875 C 874.148438 286.664062 874.949219 287.425781 875.730469 288.207031 C 876.511719 288.988281 877.273438 289.789062 878.015625 290.609375 C 878.757812 291.429688 879.480469 292.265625 880.183594 293.117188 C 880.882812 293.972656 881.5625 294.84375 882.222656 295.730469 C 882.878906 296.621094 883.515625 297.523438 884.128906 298.441406 C 884.742188 299.359375 885.335938 300.292969 885.902344 301.242188 C 886.472656 302.191406 887.015625 303.152344 887.535156 304.125 C 888.058594 305.101562 888.554688 306.089844 889.027344 307.085938 C 889.5 308.085938 889.949219 309.097656 890.371094 310.117188 C 890.792969 311.136719 891.191406 312.167969 891.5625 313.210938 C 891.9375 314.25 892.28125 315.300781 892.601562 316.355469 C 892.925781 317.414062 893.21875 318.480469 893.488281 319.550781 C 893.753906 320.625 893.996094 321.703125 894.214844 322.785156 C 894.429688 323.871094 894.617188 324.957031 894.78125 326.050781 C 894.941406 327.144531 895.078125 328.242188 895.1875 329.339844 C 895.292969 330.441406 895.375 331.542969 895.429688 332.648438 C 895.484375 333.75 895.511719 334.855469 895.511719 335.960938 Z M 895.511719 335.960938 " fill-opacity="1" fill-rule="nonzero"/></g><g clip-path="url(#1e26e0df1f)"><path fill="#62acc5" d="M 108.445312 489.132812 C 108.445312 490.90625 108.359375 492.675781 108.183594 494.441406 C 108.011719 496.207031 107.75 497.960938 107.402344 499.703125 C 107.058594 501.441406 106.628906 503.160156 106.113281 504.859375 C 105.597656 506.554688 105 508.222656 104.320312 509.863281 C 103.644531 511.503906 102.886719 513.105469 102.046875 514.667969 C 101.210938 516.234375 100.300781 517.753906 99.316406 519.230469 C 98.328125 520.703125 97.273438 522.128906 96.148438 523.5 C 95.023438 524.871094 93.832031 526.183594 92.578125 527.4375 C 91.324219 528.691406 90.011719 529.882812 88.640625 531.007812 C 87.269531 532.132812 85.84375 533.1875 84.371094 534.175781 C 82.894531 535.160156 81.375 536.070312 79.808594 536.90625 C 78.246094 537.742188 76.644531 538.5 75.003906 539.179688 C 73.367188 539.859375 71.699219 540.457031 70 540.972656 C 68.300781 541.484375 66.582031 541.917969 64.84375 542.261719 C 63.101562 542.609375 61.351562 542.867188 59.585938 543.042969 C 57.820312 543.214844 56.050781 543.304688 54.273438 543.304688 C 52.5 543.304688 50.730469 543.214844 48.964844 543.042969 C 47.199219 542.867188 45.445312 542.609375 43.707031 542.261719 C 41.964844 541.917969 40.246094 541.484375 38.550781 540.972656 C 36.851562 540.457031 35.183594 539.859375 33.542969 539.179688 C 31.90625 538.5 30.304688 537.742188 28.738281 536.90625 C 27.175781 536.070312 25.65625 535.160156 24.179688 534.175781 C 22.703125 533.1875 21.28125 532.132812 19.910156 531.007812 C 18.539062 529.882812 17.226562 528.691406 15.972656 527.4375 C 14.714844 526.183594 13.527344 524.871094 12.402344 523.5 C 11.273438 522.128906 10.21875 520.703125 9.234375 519.230469 C 8.25 517.753906 7.335938 516.234375 6.5 514.667969 C 5.664062 513.105469 4.90625 511.503906 4.226562 509.863281 C 3.550781 508.222656 2.953125 506.554688 2.4375 504.859375 C 1.921875 503.160156 1.492188 501.441406 1.144531 499.703125 C 0.800781 497.960938 0.539062 496.207031 0.367188 494.441406 C 0.191406 492.675781 0.105469 490.90625 0.105469 489.132812 C 0.105469 487.359375 0.191406 485.589844 0.367188 483.824219 C 0.539062 482.058594 0.800781 480.304688 1.144531 478.566406 C 1.492188 476.824219 1.921875 475.105469 2.4375 473.410156 C 2.953125 471.710938 3.550781 470.042969 4.226562 468.402344 C 4.90625 466.765625 5.664062 465.164062 6.5 463.597656 C 7.335938 462.03125 8.25 460.511719 9.234375 459.039062 C 10.21875 457.5625 11.273438 456.140625 12.402344 454.769531 C 13.527344 453.398438 14.714844 452.082031 15.972656 450.828125 C 17.226562 449.574219 18.539062 448.382812 19.910156 447.257812 C 21.28125 446.132812 22.703125 445.078125 24.179688 444.09375 C 25.65625 443.105469 27.175781 442.195312 28.738281 441.359375 C 30.304688 440.523438 31.90625 439.765625 33.542969 439.085938 C 35.183594 438.40625 36.851562 437.8125 38.550781 437.296875 C 40.246094 436.78125 41.964844 436.351562 43.707031 436.003906 C 45.445312 435.65625 47.199219 435.398438 48.964844 435.222656 C 50.730469 435.050781 52.5 434.964844 54.273438 434.964844 C 56.050781 434.964844 57.820312 435.050781 59.585938 435.222656 C 61.351562 435.398438 63.101562 435.65625 64.84375 436.003906 C 66.582031 436.351562 68.300781 436.78125 70 437.296875 C 71.699219 437.8125 73.367188 438.40625 75.003906 439.085938 C 76.644531 439.765625 78.246094 440.523438 79.808594 441.359375 C 81.375 442.195312 82.894531 443.105469 84.371094 444.09375 C 85.84375 445.078125 87.269531 446.132812 88.640625 447.257812 C 90.011719 448.382812 91.324219 449.574219 92.578125 450.828125 C 93.832031 452.082031 95.023438 453.398438 96.148438 454.769531 C 97.273438 456.140625 98.328125 457.5625 99.316406 459.039062 C 100.300781 460.511719 101.210938 462.03125 102.046875 463.597656 C 102.886719 465.164062 103.644531 466.765625 104.320312 468.402344 C 105 470.042969 105.597656 471.710938 106.113281 473.410156 C 106.628906 475.105469 107.058594 476.824219 107.402344 478.566406 C 107.75 480.304688 108.011719 482.058594 108.183594 483.824219 C 108.359375 485.589844 108.445312 487.359375 108.445312 489.132812 Z M 108.445312 489.132812 " fill-opacity="1" fill-rule="nonzero"/></g></svg>